{
	"asset":{
		"generator":"Khronos glTF Blender I/O v3.6.27",
		"version":"2.0"
	},
	"scene":0,
	"scenes":[
		{
			"name":"Scene",
			"nodes":[
				0
			]
		}
	],
	"nodes":[
		{
			"mesh":0,
			"name":"Cabelo-0.0015 m.001",
			"rotation":[
				-0.06294745951890945,
				-0.002156255766749382,
				0.059812046587467194,
				0.9962206482887268
			],
			"translation":[
				-0.23444554209709167,
				-0.12569403648376465,
				-0.19532309472560883
			]
		}
	],
	"materials":[
		{
			"doubleSided":true,
			"name":"Gon-Cabelo",
			"pbrMetallicRoughness":{
				"baseColorFactor":[
					0,
					0,
					0,
					1
				],
				"metallicFactor":0,
				"roughnessFactor":0.4000000059604645
			}
		},
		{
			"doubleSided":true,
			"name":"Outline",
			"pbrMetallicRoughness":{
				"baseColorFactor":[
					0,
					0,
					0,
					1
				],
				"metallicFactor":0,
				"roughnessFactor":0.4000000059604645
			}
		},
		{
			"doubleSided":true,
			"name":"Gon-Brilho-Pele",
			"pbrMetallicRoughness":{
				"baseColorFactor":[
					1,
					0.5363463759422302,
					0.3529253900051117,
					1
				],
				"metallicFactor":0,
				"roughnessFactor":0.4000000059604645
			}
		},
		{
			"doubleSided":true,
			"name":"Gon-Brilho-Verde",
			"pbrMetallicRoughness":{
				"baseColorFactor":[
					0.08159138262271881,
					0.496705561876297,
					0.07764431834220886,
					1
				],
				"metallicFactor":0,
				"roughnessFactor":0.4000000059604645
			}
		},
		{
			"doubleSided":true,
			"name":"Gon-Brilho-Branco",
			"pbrMetallicRoughness":{
				"baseColorFactor":[
					0.6038265228271484,
					0.6038268804550171,
					0.6038272380828857,
					1
				],
				"metallicFactor":0,
				"roughnessFactor":0.4000000059604645
			}
		},
		{
			"doubleSided":true,
			"name":"Gon-OlhosDetalhe",
			"pbrMetallicRoughness":{
				"baseColorFactor":[
					0,
					0,
					0,
					1
				],
				"metallicFactor":0,
				"roughnessFactor":0.4000000059604645
			}
		},
		{
			"doubleSided":true,
			"name":"Gon-Brilho-Iris",
			"pbrMetallicRoughness":{
				"baseColorFactor":[
					1,
					0.16513192653656006,
					0.010329893790185452,
					1
				],
				"metallicFactor":0,
				"roughnessFactor":0.4000000059604645
			}
		},
		{
			"doubleSided":true,
			"name":"Gon-Pupila",
			"pbrMetallicRoughness":{
				"baseColorFactor":[
					0,
					0,
					0,
					1
				],
				"metallicFactor":0,
				"roughnessFactor":0.4000000059604645
			}
		},
		{
			"doubleSided":true,
			"name":"Gon-IrisDetalhe",
			"pbrMetallicRoughness":{
				"baseColorFactor":[
					0,
					0,
					0,
					1
				],
				"metallicFactor":0,
				"roughnessFactor":0.4000000059604645
			}
		},
		{
			"doubleSided":true,
			"name":"Gon-Esclera",
			"pbrMetallicRoughness":{
				"baseColorFactor":[
					0.840965747833252,
					0.840965747833252,
					0.840965747833252,
					1
				],
				"metallicFactor":0,
				"roughnessFactor":0.4000000059604645
			}
		},
		{
			"doubleSided":true,
			"name":"Brilho",
			"pbrMetallicRoughness":{
				"baseColorFactor":[
					0.9999987483024597,
					0.999998927116394,
					1,
					1
				],
				"metallicFactor":0,
				"roughnessFactor":0.4000000059604645
			}
		}
	],
	"meshes":[
		{
			"name":"BezierCurve.007",
			"primitives":[
				{
					"attributes":{
						"POSITION":0,
						"NORMAL":1,
						"TEXCOORD_0":2
					},
					"indices":3,
					"material":0
				},
				{
					"attributes":{
						"POSITION":4,
						"NORMAL":5,
						"TEXCOORD_0":6
					},
					"indices":7,
					"material":1
				},
				{
					"attributes":{
						"POSITION":8,
						"NORMAL":9,
						"TEXCOORD_0":10
					},
					"indices":11,
					"material":2
				},
				{
					"attributes":{
						"POSITION":12,
						"NORMAL":13,
						"TEXCOORD_0":14
					},
					"indices":15,
					"material":3
				},
				{
					"attributes":{
						"POSITION":16,
						"NORMAL":17,
						"TEXCOORD_0":18
					},
					"indices":19,
					"material":4
				},
				{
					"attributes":{
						"POSITION":20,
						"NORMAL":21,
						"TEXCOORD_0":22
					},
					"indices":23,
					"material":5
				},
				{
					"attributes":{
						"POSITION":24,
						"NORMAL":25,
						"TEXCOORD_0":26
					},
					"indices":27,
					"material":6
				},
				{
					"attributes":{
						"POSITION":28,
						"NORMAL":29,
						"TEXCOORD_0":30
					},
					"indices":31,
					"material":7
				},
				{
					"attributes":{
						"POSITION":32,
						"NORMAL":33,
						"TEXCOORD_0":34
					},
					"indices":35,
					"material":8
				},
				{
					"attributes":{
						"POSITION":36,
						"NORMAL":37,
						"TEXCOORD_0":38
					},
					"indices":39,
					"material":9
				},
				{
					"attributes":{
						"POSITION":40,
						"NORMAL":41,
						"TEXCOORD_0":42
					},
					"indices":43,
					"material":10
				}
			]
		}
	],
	"accessors":[
		{
			"bufferView":0,
			"componentType":5126,
			"count":1870,
			"max":[
				-0.10813161730766296,
				0.7057914733886719,
				0.17193374037742615
			],
			"min":[
				-0.4188288152217865,
				0.3795764148235321,
				-0.14132817089557648
			],
			"type":"VEC3"
		},
		{
			"bufferView":1,
			"componentType":5126,
			"count":1870,
			"type":"VEC3"
		},
		{
			"bufferView":2,
			"componentType":5126,
			"count":1870,
			"type":"VEC2"
		},
		{
			"bufferView":3,
			"componentType":5123,
			"count":8928,
			"type":"SCALAR"
		},
		{
			"bufferView":4,
			"componentType":5126,
			"count":396,
			"max":[
				-0.13665015995502472,
				0.4451788663864136,
				0.14925701916217804
			],
			"min":[
				-0.24036386609077454,
				0.4066730737686157,
				0.08003678172826767
			],
			"type":"VEC3"
		},
		{
			"bufferView":5,
			"componentType":5126,
			"count":396,
			"type":"VEC3"
		},
		{
			"bufferView":6,
			"componentType":5126,
			"count":396,
			"type":"VEC2"
		},
		{
			"bufferView":7,
			"componentType":5123,
			"count":2328,
			"type":"SCALAR"
		},
		{
			"bufferView":8,
			"componentType":5126,
			"count":12085,
			"max":[
				0.9929057359695435,
				0.5609359741210938,
				0.35219505429267883
			],
			"min":[
				-0.3597731590270996,
				-0.012368702329695225,
				-0.1380123645067215
			],
			"type":"VEC3"
		},
		{
			"bufferView":9,
			"componentType":5126,
			"count":12085,
			"type":"VEC3"
		},
		{
			"bufferView":10,
			"componentType":5126,
			"count":12085,
			"type":"VEC2"
		},
		{
			"bufferView":11,
			"componentType":5123,
			"count":57660,
			"type":"SCALAR"
		},
		{
			"bufferView":12,
			"componentType":5126,
			"count":1310,
			"max":[
				0.2168336659669876,
				0.2811927795410156,
				0.17028895020484924
			],
			"min":[
				-0.050197429955005646,
				-0.01127099059522152,
				-0.10659236460924149
			],
			"type":"VEC3"
		},
		{
			"bufferView":13,
			"componentType":5126,
			"count":1310,
			"type":"VEC3"
		},
		{
			"bufferView":14,
			"componentType":5126,
			"count":1310,
			"type":"VEC2"
		},
		{
			"bufferView":15,
			"componentType":5123,
			"count":5298,
			"type":"SCALAR"
		},
		{
			"bufferView":16,
			"componentType":5126,
			"count":682,
			"max":[
				0.05637247860431671,
				0.3410893976688385,
				0.12376788258552551
			],
			"min":[
				-0.2956368029117584,
				-0.0013897012686356902,
				-0.10967276245355606
			],
			"type":"VEC3"
		},
		{
			"bufferView":17,
			"componentType":5126,
			"count":682,
			"type":"VEC3"
		},
		{
			"bufferView":18,
			"componentType":5126,
			"count":682,
			"type":"VEC2"
		},
		{
			"bufferView":19,
			"componentType":5123,
			"count":3786,
			"type":"SCALAR"
		},
		{
			"bufferView":20,
			"componentType":5126,
			"count":350,
			"max":[
				-0.14990924298763275,
				0.4224686920642853,
				0.13501909375190735
			],
			"min":[
				-0.2266465276479721,
				0.40156635642051697,
				0.09094253182411194
			],
			"type":"VEC3"
		},
		{
			"bufferView":21,
			"componentType":5126,
			"count":350,
			"type":"VEC3"
		},
		{
			"bufferView":22,
			"componentType":5126,
			"count":350,
			"type":"VEC2"
		},
		{
			"bufferView":23,
			"componentType":5123,
			"count":1824,
			"type":"SCALAR"
		},
		{
			"bufferView":24,
			"componentType":5126,
			"count":112,
			"max":[
				-0.15021727979183197,
				0.42178866267204285,
				0.13464587926864624
			],
			"min":[
				-0.22705207765102386,
				0.3797888457775116,
				0.08720160275697708
			],
			"type":"VEC3"
		},
		{
			"bufferView":25,
			"componentType":5126,
			"count":112,
			"type":"VEC3"
		},
		{
			"bufferView":26,
			"componentType":5126,
			"count":112,
			"type":"VEC2"
		},
		{
			"bufferView":27,
			"componentType":5123,
			"count":336,
			"type":"SCALAR"
		},
		{
			"bufferView":28,
			"componentType":5126,
			"count":222,
			"max":[
				-0.15230657160282135,
				0.4159814715385437,
				0.1326148509979248
			],
			"min":[
				-0.22323720157146454,
				0.38480815291404724,
				0.09098850190639496
			],
			"type":"VEC3"
		},
		{
			"bufferView":29,
			"componentType":5126,
			"count":222,
			"type":"VEC3"
		},
		{
			"bufferView":30,
			"componentType":5126,
			"count":222,
			"type":"VEC2"
		},
		{
			"bufferView":31,
			"componentType":5123,
			"count":1152,
			"type":"SCALAR"
		},
		{
			"bufferView":32,
			"componentType":5126,
			"count":112,
			"max":[
				-0.14996449649333954,
				0.42251071333885193,
				0.1349620223045349
			],
			"min":[
				-0.22751657664775848,
				0.3790968656539917,
				0.0867275819182396
			],
			"type":"VEC3"
		},
		{
			"bufferView":33,
			"componentType":5126,
			"count":112,
			"type":"VEC3"
		},
		{
			"bufferView":34,
			"componentType":5126,
			"count":112,
			"type":"VEC2"
		},
		{
			"bufferView":35,
			"componentType":5123,
			"count":336,
			"type":"SCALAR"
		},
		{
			"bufferView":36,
			"componentType":5126,
			"count":144,
			"max":[
				-0.14086978137493134,
				0.43718022108078003,
				0.13723328709602356
			],
			"min":[
				-0.2546112537384033,
				0.376713365316391,
				0.061487697064876556
			],
			"type":"VEC3"
		},
		{
			"bufferView":37,
			"componentType":5126,
			"count":144,
			"type":"VEC3"
		},
		{
			"bufferView":38,
			"componentType":5126,
			"count":144,
			"type":"VEC2"
		},
		{
			"bufferView":39,
			"componentType":5123,
			"count":708,
			"type":"SCALAR"
		},
		{
			"bufferView":40,
			"componentType":5126,
			"count":98,
			"max":[
				-0.15694689750671387,
				0.4151456952095032,
				0.1332242488861084
			],
			"min":[
				-0.22141017019748688,
				0.4049474000930786,
				0.10270753502845764
			],
			"type":"VEC3"
		},
		{
			"bufferView":41,
			"componentType":5126,
			"count":98,
			"type":"VEC3"
		},
		{
			"bufferView":42,
			"componentType":5126,
			"count":98,
			"type":"VEC2"
		},
		{
			"bufferView":43,
			"componentType":5123,
			"count":432,
			"type":"SCALAR"
		}
	],
	"bufferViews":[
		{
			"buffer":0,
			"byteLength":22440,
			"byteOffset":0,
			"target":34962
		},
		{
			"buffer":0,
			"byteLength":22440,
			"byteOffset":22440,
			"target":34962
		},
		{
			"buffer":0,
			"byteLength":14960,
			"byteOffset":44880,
			"target":34962
		},
		{
			"buffer":0,
			"byteLength":17856,
			"byteOffset":59840,
			"target":34963
		},
		{
			"buffer":0,
			"byteLength":4752,
			"byteOffset":77696,
			"target":34962
		},
		{
			"buffer":0,
			"byteLength":4752,
			"byteOffset":82448,
			"target":34962
		},
		{
			"buffer":0,
			"byteLength":3168,
			"byteOffset":87200,
			"target":34962
		},
		{
			"buffer":0,
			"byteLength":4656,
			"byteOffset":90368,
			"target":34963
		},
		{
			"buffer":0,
			"byteLength":145020,
			"byteOffset":95024,
			"target":34962
		},
		{
			"buffer":0,
			"byteLength":145020,
			"byteOffset":240044,
			"target":34962
		},
		{
			"buffer":0,
			"byteLength":96680,
			"byteOffset":385064,
			"target":34962
		},
		{
			"buffer":0,
			"byteLength":115320,
			"byteOffset":481744,
			"target":34963
		},
		{
			"buffer":0,
			"byteLength":15720,
			"byteOffset":597064,
			"target":34962
		},
		{
			"buffer":0,
			"byteLength":15720,
			"byteOffset":612784,
			"target":34962
		},
		{
			"buffer":0,
			"byteLength":10480,
			"byteOffset":628504,
			"target":34962
		},
		{
			"buffer":0,
			"byteLength":10596,
			"byteOffset":638984,
			"target":34963
		},
		{
			"buffer":0,
			"byteLength":8184,
			"byteOffset":649580,
			"target":34962
		},
		{
			"buffer":0,
			"byteLength":8184,
			"byteOffset":657764,
			"target":34962
		},
		{
			"buffer":0,
			"byteLength":5456,
			"byteOffset":665948,
			"target":34962
		},
		{
			"buffer":0,
			"byteLength":7572,
			"byteOffset":671404,
			"target":34963
		},
		{
			"buffer":0,
			"byteLength":4200,
			"byteOffset":678976,
			"target":34962
		},
		{
			"buffer":0,
			"byteLength":4200,
			"byteOffset":683176,
			"target":34962
		},
		{
			"buffer":0,
			"byteLength":2800,
			"byteOffset":687376,
			"target":34962
		},
		{
			"buffer":0,
			"byteLength":3648,
			"byteOffset":690176,
			"target":34963
		},
		{
			"buffer":0,
			"byteLength":1344,
			"byteOffset":693824,
			"target":34962
		},
		{
			"buffer":0,
			"byteLength":1344,
			"byteOffset":695168,
			"target":34962
		},
		{
			"buffer":0,
			"byteLength":896,
			"byteOffset":696512,
			"target":34962
		},
		{
			"buffer":0,
			"byteLength":672,
			"byteOffset":697408,
			"target":34963
		},
		{
			"buffer":0,
			"byteLength":2664,
			"byteOffset":698080,
			"target":34962
		},
		{
			"buffer":0,
			"byteLength":2664,
			"byteOffset":700744,
			"target":34962
		},
		{
			"buffer":0,
			"byteLength":1776,
			"byteOffset":703408,
			"target":34962
		},
		{
			"buffer":0,
			"byteLength":2304,
			"byteOffset":705184,
			"target":34963
		},
		{
			"buffer":0,
			"byteLength":1344,
			"byteOffset":707488,
			"target":34962
		},
		{
			"buffer":0,
			"byteLength":1344,
			"byteOffset":708832,
			"target":34962
		},
		{
			"buffer":0,
			"byteLength":896,
			"byteOffset":710176,
			"target":34962
		},
		{
			"buffer":0,
			"byteLength":672,
			"byteOffset":711072,
			"target":34963
		},
		{
			"buffer":0,
			"byteLength":1728,
			"byteOffset":711744,
			"target":34962
		},
		{
			"buffer":0,
			"byteLength":1728,
			"byteOffset":713472,
			"target":34962
		},
		{
			"buffer":0,
			"byteLength":1152,
			"byteOffset":715200,
			"target":34962
		},
		{
			"buffer":0,
			"byteLength":1416,
			"byteOffset":716352,
			"target":34963
		},
		{
			"buffer":0,
			"byteLength":1176,
			"byteOffset":717768,
			"target":34962
		},
		{
			"buffer":0,
			"byteLength":1176,
			"byteOffset":718944,
			"target":34962
		},
		{
			"buffer":0,
			"byteLength":784,
			"byteOffset":720120,
			"target":34962
		},
		{
			"buffer":0,
			"byteLength":864,
			"byteOffset":720904,
			"target":34963
		}
	],
	"buffers":[
		{
			"byteLength":721768,
			"uri":"scene.bin"
		}
	]
}
